<svg
  xmlns="http://www.w3.org/2000/svg"
  xml:space="preserve"
  width="4.2332mm"
  height="2.1167mm"
  version="1.0"
  style="shape-rendering:geometricPrecision; text-rendering:geometricPrecision; image-rendering:optimizeQuality; fill-rule:evenodd; clip-rule:evenodd"
  viewBox="0 0 9.74 4.87">
 <defs>
  <style type="text/css">
   <![CDATA[
    .fil1 {fill:#0099B5;fill-rule:nonzero}
    .fil0 {fill:#1EB53A;fill-rule:nonzero}
    .fil2 {fill:#CE1126;fill-rule:nonzero}
    .fil3 {fill:white;fill-rule:nonzero}
   ]]>
  </style>
 </defs>
  <g id="Слой_x0020_1">
  <metadata id="CorelCorpID_0Corel-Layer"/>
    <g id="_2542425498256">
   <path class="fil0" d="M-0 0l9.74 0 0 4.87 -9.74 0 0 -4.87z"/>
      <path class="fil1" d="M-0 0l9.74 0 0 2.43 -9.74 0 0 -2.43z"/>
      <path class="fil2" d="M-0 1.56l9.74 0 0 1.75 -9.74 0 0 -1.75z"/>
      <path class="fil3" d="M-0 1.66l9.74 0 0 1.56 -9.74 0 0 -1.56z"/>
      <path class="fil3"
            d="M1.95 0.78c0,-0.32 -0.26,-0.58 -0.58,-0.58 -0.32,0 -0.58,0.26 -0.58,0.58 0,0.32 0.26,0.58 0.58,0.58 0.32,0 0.58,-0.26 0.58,-0.58z"/>
      <path class="fil1"
            d="M2.14 0.78c0,-0.32 -0.26,-0.58 -0.58,-0.58 -0.32,0 -0.58,0.26 -0.58,0.58 0,0.32 0.26,0.58 0.58,0.58 0.32,0 0.58,-0.26 0.58,-0.58z"/>
      <g>
    <path id="a" class="fil3" d="M2.65 1.13l-0.04 0.11 0.06 0.02 -0.02 -0.13zm0 0l0 0 0 0z"/>
   </g>
      <g>
    <path class="fil3" d="M2.65 1.13l0.04 0.11 -0.06 0.02 0.02 -0.13zm0 0l0 0 0 0z"/>
   </g>
      <g>
    <path class="fil3" d="M2.76 1.21l-0.12 0 0 0.06 0.12 -0.06zm0 0l0 0 0 0z"/>
   </g>
      <g>
    <path class="fil3" d="M2.76 1.21l-0.09 0.07 -0.03 -0.05 0.13 -0.02zm0 0l0 0 0 0z"/>
   </g>
      <g>
    <path class="fil3" d="M2.54 1.21l0.09 0.07 0.03 -0.05 -0.13 -0.02zm0 0l0 0 0 0z"/>
   </g>
      <g>
    <path class="fil3" d="M2.54 1.21l0.12 0 0 0.06 -0.12 -0.06zm0 0l0 0 0 0z"/>
   </g>
      <g>
    <path class="fil3" d="M2.72 1.34l-0.04 -0.11 -0.06 0.02 0.09 0.09zm0 0l0 0 0 0z"/>
   </g>
      <g>
    <path class="fil3" d="M2.72 1.34l-0.09 -0.07 0.03 -0.05 0.06 0.12zm0 0l0 0 0 0z"/>
   </g>
      <g>
    <path class="fil3" d="M2.58 1.34l0.09 -0.07 -0.03 -0.05 -0.06 0.12zm0 0l0 0 0 0z"/>
   </g>
      <g>
    <path class="fil3" d="M2.58 1.34l0.04 -0.11 0.06 0.02 -0.09 0.09zm0 0l0 0 0 0z"/>
   </g>
      <g>
    <path class="fil3" d="M2.65 0.66l-0.04 0.11 0.06 0.02 -0.02 -0.13zm0 0l0 0 0 0z"/>
   </g>
      <g>
    <path class="fil3" d="M2.65 0.66l0.04 0.11 -0.06 0.02 0.02 -0.13zm0 0l0 0 0 0z"/>
   </g>
      <g>
    <path class="fil3" d="M2.76 0.74l-0.12 0 0 0.06 0.12 -0.06zm0 0l0 0 0 0z"/>
   </g>
      <g>
    <path class="fil3" d="M2.76 0.74l-0.09 0.07 -0.03 -0.05 0.13 -0.02zm0 0l0 0 0 0z"/>
   </g>
      <g>
    <path class="fil3" d="M2.54 0.74l0.09 0.07 0.03 -0.05 -0.13 -0.02zm0 0l0 0 0 0z"/>
   </g>
      <g>
    <path class="fil3" d="M2.54 0.74l0.12 0 0 0.06 -0.12 -0.06zm0 0l0 0 0 0z"/>
   </g>
      <g>
    <path class="fil3" d="M2.72 0.87l-0.04 -0.11 -0.06 0.02 0.09 0.09zm0 0l0 0 0 0z"/>
   </g>
      <g>
    <path class="fil3" d="M2.72 0.87l-0.09 -0.07 0.03 -0.05 0.06 0.12zm0 0l0 0 0 0z"/>
   </g>
      <g>
    <path class="fil3" d="M2.58 0.87l0.09 -0.07 -0.03 -0.05 -0.06 0.12zm0 0l0 0 0 0z"/>
   </g>
      <g>
    <path class="fil3" d="M2.58 0.87l0.04 -0.11 0.06 0.02 -0.09 0.09zm0 0l0 0 0 0z"/>
   </g>
      <g>
    <path class="fil3" d="M2.65 0.19l-0.04 0.11 0.06 0.02 -0.02 -0.13zm0 0l0 0 0 0z"/>
   </g>
      <g>
    <path class="fil3" d="M2.65 0.19l0.04 0.11 -0.06 0.02 0.02 -0.13zm0 0l0 0 0 0z"/>
   </g>
      <g>
    <path class="fil3" d="M2.76 0.28l-0.12 0 0 0.06 0.12 -0.06zm0 0l0 0 0 0z"/>
   </g>
      <g>
    <path class="fil3" d="M2.76 0.28l-0.09 0.07 -0.03 -0.05 0.13 -0.02zm0 0l0 0 0 0z"/>
   </g>
      <g>
    <path class="fil3" d="M2.54 0.28l0.09 0.07 0.03 -0.05 -0.13 -0.02zm0 0l0 0 0 0z"/>
   </g>
      <g>
    <path class="fil3" d="M2.54 0.28l0.12 0 0 0.06 -0.12 -0.06zm0 0l0 0 0 0z"/>
   </g>
      <g>
    <path class="fil3" d="M2.72 0.41l-0.04 -0.11 -0.06 0.02 0.09 0.09zm0 0l0 0 0 0z"/>
   </g>
      <g>
    <path class="fil3" d="M2.72 0.41l-0.09 -0.07 0.03 -0.05 0.06 0.12zm0 0l0 0 0 0z"/>
   </g>
      <g>
    <path class="fil3" d="M2.58 0.41l0.09 -0.07 -0.03 -0.05 -0.06 0.12zm0 0l0 0 0 0z"/>
   </g>
      <g>
    <path class="fil3" d="M2.58 0.41l0.04 -0.11 0.06 0.02 -0.09 0.09zm0 0l0 0 0 0z"/>
   </g>
      <g>
    <path class="fil3" d="M3.12 1.13l-0.04 0.11 0.06 0.02 -0.02 -0.13zm0 0l0 0 0 0z"/>
   </g>
      <g>
    <path class="fil3" d="M3.12 1.13l0.04 0.11 -0.06 0.02 0.02 -0.13zm0 0l0 0 0 0z"/>
   </g>
      <g>
    <path class="fil3" d="M3.23 1.21l-0.12 0 0 0.06 0.12 -0.06zm0 0l0 0 0 0z"/>
   </g>
      <g>
    <path class="fil3" d="M3.23 1.21l-0.09 0.07 -0.03 -0.05 0.13 -0.02zm0 0l0 0 0 0z"/>
   </g>
      <g>
    <path class="fil3" d="M3.01 1.21l0.09 0.07 0.03 -0.05 -0.13 -0.02zm0 0l0 0 0 0z"/>
   </g>
      <g>
    <path class="fil3" d="M3.01 1.21l0.12 0 0 0.06 -0.12 -0.06zm0 0l0 0 0 0z"/>
   </g>
      <g>
    <path class="fil3" d="M3.19 1.34l-0.04 -0.11 -0.06 0.02 0.09 0.09zm0 0l0 0 0 0z"/>
   </g>
      <g>
    <path class="fil3" d="M3.19 1.34l-0.09 -0.07 0.03 -0.05 0.06 0.12zm0 0l0 0 0 0z"/>
   </g>
      <g>
    <path class="fil3" d="M3.05 1.34l0.09 -0.07 -0.03 -0.05 -0.06 0.12zm0 0l0 0 0 0z"/>
   </g>
      <g>
    <path class="fil3" d="M3.05 1.34l0.04 -0.11 0.06 0.02 -0.09 0.09zm0 0l0 0 0 0z"/>
   </g>
      <g>
    <path class="fil3" d="M3.12 0.66l-0.04 0.11 0.06 0.02 -0.02 -0.13zm0 0l0 0 0 0z"/>
   </g>
      <g>
    <path class="fil3" d="M3.12 0.66l0.04 0.11 -0.06 0.02 0.02 -0.13zm0 0l0 0 0 0z"/>
   </g>
      <g>
    <path class="fil3" d="M3.23 0.74l-0.12 0 0 0.06 0.12 -0.06zm0 0l0 0 0 0z"/>
   </g>
      <g>
    <path class="fil3" d="M3.23 0.74l-0.09 0.07 -0.03 -0.05 0.13 -0.02zm0 0l0 0 0 0z"/>
   </g>
      <g>
    <path class="fil3" d="M3.01 0.74l0.09 0.07 0.03 -0.05 -0.13 -0.02zm0 0l0 0 0 0z"/>
   </g>
      <g>
    <path class="fil3" d="M3.01 0.74l0.12 0 0 0.06 -0.12 -0.06zm0 0l0 0 0 0z"/>
   </g>
      <g>
    <path class="fil3" d="M3.19 0.87l-0.04 -0.11 -0.06 0.02 0.09 0.09zm0 0l0 0 0 0z"/>
   </g>
      <g>
    <path class="fil3" d="M3.19 0.87l-0.09 -0.07 0.03 -0.05 0.06 0.12zm0 0l0 0 0 0z"/>
   </g>
      <g>
    <path class="fil3" d="M3.05 0.87l0.09 -0.07 -0.03 -0.05 -0.06 0.12zm0 0l0 0 0 0z"/>
   </g>
      <g>
    <path class="fil3" d="M3.05 0.87l0.04 -0.11 0.06 0.02 -0.09 0.09zm0 0l0 0 0 0z"/>
   </g>
      <g>
    <path class="fil3" d="M3.12 0.19l-0.04 0.11 0.06 0.02 -0.02 -0.13zm0 0l0 0 0 0z"/>
   </g>
      <g>
    <path class="fil3" d="M3.12 0.19l0.04 0.11 -0.06 0.02 0.02 -0.13zm0 0l0 0 0 0z"/>
   </g>
      <g>
    <path class="fil3" d="M3.23 0.28l-0.12 0 0 0.06 0.12 -0.06zm0 0l0 0 0 0z"/>
   </g>
      <g>
    <path class="fil3" d="M3.23 0.28l-0.09 0.07 -0.03 -0.05 0.13 -0.02zm0 0l0 0 0 0z"/>
   </g>
      <g>
    <path class="fil3" d="M3.01 0.28l0.09 0.07 0.03 -0.05 -0.13 -0.02zm0 0l0 0 0 0z"/>
   </g>
      <g>
    <path class="fil3" d="M3.01 0.28l0.12 0 0 0.06 -0.12 -0.06zm0 0l0 0 0 0z"/>
   </g>
      <g>
    <path class="fil3" d="M3.19 0.41l-0.04 -0.11 -0.06 0.02 0.09 0.09zm0 0l0 0 0 0z"/>
   </g>
      <g>
    <path class="fil3" d="M3.19 0.41l-0.09 -0.07 0.03 -0.05 0.06 0.12zm0 0l0 0 0 0z"/>
   </g>
      <g>
    <path class="fil3" d="M3.05 0.41l0.09 -0.07 -0.03 -0.05 -0.06 0.12zm0 0l0 0 0 0z"/>
   </g>
      <g>
    <path class="fil3" d="M3.05 0.41l0.04 -0.11 0.06 0.02 -0.09 0.09zm0 0l0 0 0 0z"/>
   </g>
      <g>
    <path class="fil3" d="M3.58 1.13l-0.04 0.11 0.06 0.02 -0.02 -0.13zm0 0l0 0 0 0z"/>
   </g>
      <g>
    <path class="fil3" d="M3.58 1.13l0.04 0.11 -0.06 0.02 0.02 -0.13zm0 0l0 0 0 0z"/>
   </g>
      <g>
    <path class="fil3" d="M3.7 1.21l-0.12 0 0 0.06 0.12 -0.06zm0 0l0 0 0 0z"/>
   </g>
      <g>
    <path class="fil3" d="M3.7 1.21l-0.09 0.07 -0.03 -0.05 0.13 -0.02zm0 0l0 0 0 0z"/>
   </g>
      <g>
    <path class="fil3" d="M3.47 1.21l0.09 0.07 0.03 -0.05 -0.13 -0.02zm0 0l0 0 0 0z"/>
   </g>
      <g>
    <path class="fil3" d="M3.47 1.21l0.12 0 0 0.06 -0.12 -0.06zm0 0l0 0 0 0z"/>
   </g>
      <g>
    <path class="fil3" d="M3.65 1.34l-0.04 -0.11 -0.06 0.02 0.09 0.09zm0 0l0 0 0 0z"/>
   </g>
      <g>
    <path class="fil3" d="M3.65 1.34l-0.09 -0.07 0.03 -0.05 0.06 0.12zm0 0l0 0 0 0z"/>
   </g>
      <g>
    <path class="fil3" d="M3.52 1.34l0.09 -0.07 -0.03 -0.05 -0.06 0.12zm0 0l0 0 0 0z"/>
   </g>
      <g>
    <path class="fil3" d="M3.52 1.34l0.04 -0.11 0.06 0.02 -0.09 0.09zm0 0l0 0 0 0z"/>
   </g>
      <g>
    <path class="fil3" d="M3.58 0.66l-0.04 0.11 0.06 0.02 -0.02 -0.13zm0 0l0 0 0 0z"/>
   </g>
      <g>
    <path class="fil3" d="M3.58 0.66l0.04 0.11 -0.06 0.02 0.02 -0.13zm0 0l0 0 0 0z"/>
   </g>
      <g>
    <path class="fil3" d="M3.7 0.74l-0.12 0 0 0.06 0.12 -0.06zm0 0l0 0 0 0z"/>
   </g>
      <g>
    <path class="fil3" d="M3.7 0.74l-0.09 0.07 -0.03 -0.05 0.13 -0.02zm0 0l0 0 0 0z"/>
   </g>
      <g>
    <path class="fil3" d="M3.47 0.74l0.09 0.07 0.03 -0.05 -0.13 -0.02zm0 0l0 0 0 0z"/>
   </g>
      <g>
    <path class="fil3" d="M3.47 0.74l0.12 0 0 0.06 -0.12 -0.06zm0 0l0 0 0 0z"/>
   </g>
      <g>
    <path class="fil3" d="M3.65 0.87l-0.04 -0.11 -0.06 0.02 0.09 0.09zm0 0l0 0 0 0z"/>
   </g>
      <g>
    <path class="fil3" d="M3.65 0.87l-0.09 -0.07 0.03 -0.05 0.06 0.12zm0 0l0 0 0 0z"/>
   </g>
      <g>
    <path class="fil3" d="M3.52 0.87l0.09 -0.07 -0.03 -0.05 -0.06 0.12zm0 0l0 0 0 0z"/>
   </g>
      <g>
    <path class="fil3" d="M3.52 0.87l0.04 -0.11 0.06 0.02 -0.09 0.09zm0 0l0 0 0 0z"/>
   </g>
      <g>
    <path class="fil3" d="M3.58 0.19l-0.04 0.11 0.06 0.02 -0.02 -0.13zm0 0l0 0 0 0z"/>
   </g>
      <g>
    <path class="fil3" d="M3.58 0.19l0.04 0.11 -0.06 0.02 0.02 -0.13zm0 0l0 0 0 0z"/>
   </g>
      <g>
    <path class="fil3" d="M3.7 0.28l-0.12 0 0 0.06 0.12 -0.06zm0 0l0 0 0 0z"/>
   </g>
      <g>
    <path class="fil3" d="M3.7 0.28l-0.09 0.07 -0.03 -0.05 0.13 -0.02zm0 0l0 0 0 0z"/>
   </g>
      <g>
    <path class="fil3" d="M3.47 0.28l0.09 0.07 0.03 -0.05 -0.13 -0.02zm0 0l0 0 0 0z"/>
   </g>
      <g>
    <path class="fil3" d="M3.47 0.28l0.12 0 0 0.06 -0.12 -0.06zm0 0l0 0 0 0z"/>
   </g>
      <g>
    <path class="fil3" d="M3.65 0.41l-0.04 -0.11 -0.06 0.02 0.09 0.09zm0 0l0 0 0 0z"/>
   </g>
      <g>
    <path class="fil3" d="M3.65 0.41l-0.09 -0.07 0.03 -0.05 0.06 0.12zm0 0l0 0 0 0z"/>
   </g>
      <g>
    <path class="fil3" d="M3.52 0.41l0.09 -0.07 -0.03 -0.05 -0.06 0.12zm0 0l0 0 0 0z"/>
   </g>
      <g>
    <path class="fil3" d="M3.52 0.41l0.04 -0.11 0.06 0.02 -0.09 0.09zm0 0l0 0 0 0z"/>
   </g>
      <g>
    <path class="fil3" d="M1.71 1.13l-0.04 0.11 0.06 0.02 -0.02 -0.13zm0 0l0 0 0 0z"/>
   </g>
      <g>
    <path class="fil3" d="M1.71 1.13l0.04 0.11 -0.06 0.02 0.02 -0.13zm0 0l0 0 0 0z"/>
   </g>
      <g>
    <path class="fil3" d="M1.83 1.21l-0.12 0 0 0.06 0.12 -0.06zm0 0l0 0 0 0z"/>
   </g>
      <g>
    <path class="fil3" d="M1.83 1.21l-0.09 0.07 -0.03 -0.05 0.13 -0.02zm0 0l0 0 0 0z"/>
   </g>
      <g>
    <path class="fil3" d="M1.6 1.21l0.09 0.07 0.03 -0.05 -0.13 -0.02zm0 0l0 0 0 0z"/>
   </g>
      <g>
    <path class="fil3" d="M1.6 1.21l0.12 0 0 0.06 -0.12 -0.06zm0 0l0 0 0 0z"/>
   </g>
      <g>
    <path class="fil3" d="M1.78 1.34l-0.04 -0.11 -0.06 0.02 0.09 0.09zm0 0l0 0 0 0z"/>
   </g>
      <g>
    <path class="fil3" d="M1.78 1.34l-0.09 -0.07 0.03 -0.05 0.06 0.12zm0 0l0 0 0 0z"/>
   </g>
      <g>
    <path class="fil3" d="M1.65 1.34l0.09 -0.07 -0.03 -0.05 -0.06 0.12zm0 0l0 0 0 0z"/>
   </g>
      <g>
    <path class="fil3" d="M1.65 1.34l0.04 -0.11 0.06 0.02 -0.09 0.09zm0 0l0 0 0 0z"/>
   </g>
      <g>
    <path class="fil3" d="M2.18 1.13l-0.04 0.11 0.06 0.02 -0.02 -0.13zm0 0l0 0 0 0z"/>
   </g>
      <g>
    <path class="fil3" d="M2.18 1.13l0.04 0.11 -0.06 0.02 0.02 -0.13zm0 0l0 0 0 0z"/>
   </g>
      <g>
    <path class="fil3" d="M2.29 1.21l-0.12 0 0 0.06 0.12 -0.06zm0 0l0 0 0 0z"/>
   </g>
      <g>
    <path class="fil3" d="M2.29 1.21l-0.09 0.07 -0.03 -0.05 0.13 -0.02zm0 0l0 0 0 0z"/>
   </g>
      <g>
    <path class="fil3" d="M2.07 1.21l0.09 0.07 0.03 -0.05 -0.13 -0.02zm0 0l0 0 0 0z"/>
   </g>
      <g>
    <path class="fil3" d="M2.07 1.21l0.12 0 0 0.06 -0.12 -0.06zm0 0l0 0 0 0z"/>
   </g>
      <g>
    <path class="fil3" d="M2.25 1.34l-0.04 -0.11 -0.06 0.02 0.09 0.09zm0 0l0 0 0 0z"/>
   </g>
      <g>
    <path class="fil3" d="M2.25 1.34l-0.09 -0.07 0.03 -0.05 0.06 0.12zm0 0l0 0 0 0z"/>
   </g>
      <g>
    <path class="fil3" d="M2.11 1.34l0.09 -0.07 -0.03 -0.05 -0.06 0.12zm0 0l0 0 0 0z"/>
   </g>
      <g>
    <path class="fil3" d="M2.11 1.34l0.04 -0.11 0.06 0.02 -0.09 0.09zm0 0l0 0 0 0z"/>
   </g>
      <g>
    <path class="fil3" d="M2.18 0.66l-0.04 0.11 0.06 0.02 -0.02 -0.13zm0 0l0 0 0 0z"/>
   </g>
      <g>
    <path class="fil3" d="M2.18 0.66l0.04 0.11 -0.06 0.02 0.02 -0.13zm0 0l0 0 0 0z"/>
   </g>
      <g>
    <path class="fil3" d="M2.29 0.74l-0.12 0 0 0.06 0.12 -0.06zm0 0l0 0 0 0z"/>
   </g>
      <g>
    <path class="fil3" d="M2.29 0.74l-0.09 0.07 -0.03 -0.05 0.13 -0.02zm0 0l0 0 0 0z"/>
   </g>
      <g>
    <path class="fil3" d="M2.07 0.74l0.09 0.07 0.03 -0.05 -0.13 -0.02zm0 0l0 0 0 0z"/>
   </g>
      <g>
    <path class="fil3" d="M2.07 0.74l0.12 0 0 0.06 -0.12 -0.06zm0 0l0 0 0 0z"/>
   </g>
      <g>
    <path class="fil3" d="M2.25 0.87l-0.04 -0.11 -0.06 0.02 0.09 0.09zm0 0l0 0 0 0z"/>
   </g>
      <g>
    <path class="fil3" d="M2.25 0.87l-0.09 -0.07 0.03 -0.05 0.06 0.12zm0 0l0 0 0 0z"/>
   </g>
      <g>
    <path class="fil3" d="M2.11 0.87l0.09 -0.07 -0.03 -0.05 -0.06 0.12zm0 0l0 0 0 0z"/>
   </g>
      <g>
    <path class="fil3" d="M2.11 0.87l0.04 -0.11 0.06 0.02 -0.09 0.09zm0 0l0 0 0 0z"/>
   </g>
  </g>
 </g>
</svg>
